<?xml version="1.0" encoding="utf-8"?>
<!-- Generator: Adobe Illustrator 16.0.0, SVG Export Plug-In . SVG Version: 6.00 Build 0)  -->
<!DOCTYPE svg PUBLIC "-//W3C//DTD SVG 1.1//EN" "http://www.w3.org/Graphics/SVG/1.1/DTD/svg11.dtd">
<svg version="1.1" xmlns="http://www.w3.org/2000/svg" xmlns:xlink="http://www.w3.org/1999/xlink" x="0px" y="0px" width="188px"
	 height="68px" viewBox="0 0 188 68" enable-background="new 0 0 188 68" xml:space="preserve">
<g id="Layer_1">
</g>
<g id="aArtwork">
	<path fill="#0C0C0C" d="M164,0c-13.2,0-24,10.8-24,24V2h-12v42.666L104,2H92v51.2L76,2H64L48,53.2V2H36v42.666L12,2H0v64h12V23.334
		L36,66h8h4h8l3.75-12h20.5L84,66h8h4h8V23.334L128,66h12V44c0,13.2,10.8,24,24,24s24-10.8,24-24V24C188,10.8,177.2,0,164,0z
		 M63.5,42L70,21.2L76.5,42H63.5z M176,44c0,6.6-5.4,12-12,12s-12-5.4-12-12V24c0-6.6,5.4-12,12-12s12,5.4,12,12V44z"/>
</g>
</svg>
